<svg xmlns="http://www.w3.org/2000/svg" viewBox="0 0 64 64" role="img" aria-label="Discord logo">
  <circle cx="32" cy="32" r="28" fill="#5865F2"/>
  <path d="M17 44c4 3 10 5 15 5s11-2 15-5c1-8-1-15-4-21-3-2-6-3-10-4l-1 3a30 30 0 0 0-8 0l-1-3c-4 1-7 2-10 4-3 6-5 13-4 21z" fill="#fff"/>
  <ellipse cx="27" cy="33" rx="3" ry="3.5" fill="#5865F2"/>
  <ellipse cx="37" cy="33" rx="3" ry="3.5" fill="#5865F2"/>
  <path d="M24 39c2 2 5 3 8 3s6-1 8-3" stroke="#5865F2" stroke-width="2.5" stroke-linecap="round" fill="none"/>
</svg>
