<svg xmlns="http://www.w3.org/2000/svg" viewBox="0 0 64 64" role="img" aria-label="Feishu logo">
  <defs>
    <radialGradient id="bg" cx="50%" cy="36%" r="72%">
      <stop offset="0%" stop-color="#ffffff"/>
      <stop offset="100%" stop-color="#e9edf4"/>
    </radialGradient>
    <linearGradient id="wingGreen" x1="16" y1="16" x2="36" y2="34" gradientUnits="userSpaceOnUse">
      <stop offset="0" stop-color="#4BE7AE"/>
      <stop offset="1" stop-color="#17C684"/>
    </linearGradient>
    <linearGradient id="wingBlue" x1="26" y1="28" x2="50" y2="48" gradientUnits="userSpaceOnUse">
      <stop offset="0" stop-color="#3FA9FF"/>
      <stop offset="1" stop-color="#2D5BFF"/>
    </linearGradient>
  </defs>

  <circle cx="32" cy="32" r="28" fill="url(#bg)"/>
  <circle cx="32" cy="32" r="27.5" fill="none" stroke="#d9dee8"/>

  <path d="M16 21.2c0-4.1 3.3-7.4 7.4-7.4h18.7L30.9 25c-1.8 1.8-4.6 2.1-6.8.7L16 20.2z" fill="url(#wingGreen)"/>
  <path d="M49.8 42.8c0 4.1-3.3 7.4-7.4 7.4H23.7L34.9 39c1.8-1.8 4.6-2.1 6.8-.7l8.1 4.5z" fill="url(#wingBlue)"/>
  <path d="M24.6 29.3h12.1c5.3 0 9.7 4.3 9.7 9.7h-12c-5.4 0-9.8-4.3-9.8-9.7z" fill="#fff"/>
</svg>
