<svg xmlns="http://www.w3.org/2000/svg" viewBox="0 0 64 64" role="img" aria-label="WhatsApp logo">
  <circle cx="32" cy="32" r="28" fill="#25D366"/>
  <path d="M32 16c-8.8 0-16 7-16 15.7 0 3 .9 5.8 2.5 8.2L16 48l8.4-2.4c2.3 1.2 4.9 1.9 7.6 1.9 8.8 0 16-7 16-15.8S40.8 16 32 16z" fill="#fff"/>
  <path d="M40.8 36.2c-.4 1.2-2.2 2.3-3.2 2.4-.8.1-1.7.2-5.4-1.4-4.8-2.2-7.8-7-8-7.3-.2-.3-1.9-2.5-1.9-4.8 0-2.3 1.2-3.4 1.6-3.9.4-.4.9-.5 1.2-.5h.9c.3 0 .7 0 1 .7.4 1 .9 2.5 1 2.7.1.2.2.5 0 .8-.2.3-.3.5-.6.8-.3.3-.5.5-.7.8-.2.3-.4.6-.2 1 .2.4 1.1 1.8 2.4 2.9 1.7 1.5 3.2 2 3.6 2.2.4.1.7.1.9-.2.3-.3 1.2-1.3 1.5-1.8.3-.4.6-.4 1-.3.4.1 2.3 1.1 2.7 1.3.4.2.7.3.8.5.1.2.1 1-.3 2.2z" fill="#25D366"/>
</svg>
